Coordinates
version=1
nRows=14
nColumns=40
inDegrees=yes

Units are S.I. units (second, meters, Newtons, ...)
If the header above contains a line with 'inDegrees', this indicates whether rotational values are in degrees (yes) or radians (no).

endheader
time	pelvis_tilt	pelvis_list	pelvis_rotation	pelvis_tx	pelvis_ty	pelvis_tz	hip_flexion_r	hip_adduction_r	hip_rotation_r	knee_angle_r	knee_angle_r_beta	ankle_angle_r	subtalar_angle_r	mtp_angle_r	hip_flexion_l	hip_adduction_l	hip_rotation_l	knee_angle_l	knee_angle_l_beta	ankle_angle_l	subtalar_angle_l	mtp_angle_l	lumbar_extension	lumbar_bending	lumbar_rotation	arm_flex_r	arm_add_r	arm_rot_r	elbow_flex_r	pro_sup_r	wrist_flex_r	wrist_dev_r	arm_flex_l	arm_add_l	arm_rot_l	elbow_flex_l	pro_sup_l	wrist_flex_l	wrist_dev_l
      7.72500000	    -11.50329456	     -2.79186685	      2.01045430	     -0.36564044	      1.14604511	      0.05137158	     66.70881115	     -5.11166824	     -2.29723569	     65.47183907	      1.14269916	     -8.58580072	     -8.87924627	      0.00000000	     67.96642091	    -11.13326145	      8.08410962	    101.46835320	      1.77095685	      1.68933382	      3.31179840	      0.00000000	    -45.29911299	      2.56789967	      6.10341634	     89.82944313	    -14.11808772	     33.94864708	     21.01540217	     87.16210895	      0.00000000	      0.00000000	     88.81809134	     -1.29359210	     34.00262540	     16.60245457	     86.51682323	      0.00000000	      0.00000000
      7.73333333	    -11.46893063	     -2.40513362	      1.93528998	     -0.36536605	      1.14636647	      0.05106229	     65.40473823	     -5.24639631	     -2.15521124	     63.78458152	      1.11325096	     -9.21288116	     -8.68659901	      0.00000000	     68.88012198	    -10.97783368	      7.97534396	    102.85713563	      1.79519568	      2.26403374	      3.47834388	      0.00000000	    -45.35592656	      2.18773813	      5.86723530	     89.82917276	    -14.11327635	     34.02097067	     20.92546231	     87.16331210	      0.00000000	      0.00000000	     88.81774733	     -1.30300621	     33.98085481	     16.64807289	     86.53291889	      0.00000000	      0.00000000
      7.74166667	    -11.23201908	     -2.28168638	      1.75088122	     -0.36478044	      1.14682598	      0.05095709	     63.86996766	     -5.11497718	     -2.18451685	     62.10708395	      1.08397310	    -10.31022601	     -8.51841925	      0.00000000	     69.62078897	    -11.16293771	      8.03039666	    104.24957398	      1.81949831	      2.85571206	      4.12775884	      0.00000000	    -45.60598285	      1.94835310	      5.92893537	     89.82824754	    -14.15827509	     34.15243734	     20.89454212	     87.13129756	      0.00000000	      0.00000000	     88.78458591	     -1.28694728	     33.94327937	     16.71881232	     86.56894254	      0.00000000	      0.00000000
      7.75000000	    -11.15285132	     -1.90291938	      1.73321125	     -0.36432910	      1.14699421	      0.05074017	     62.58413460	     -5.25577496	     -1.99971677	     60.64506365	      1.05845604	    -10.57489259	     -8.50791032	      0.00000000	     70.57644910	    -11.03791469	      7.87182735	    105.61148664	      1.84326817	      3.13155956	      4.30373306	      0.00000000	    -45.68104625	      1.58796160	      5.64827961	     89.82088127	    -14.14762205	     34.18043401	     20.78237955	     87.12858099	      0.00000000	      0.00000000	     88.77964259	     -1.27228591	     33.95606466	     16.71721947	     86.58096450	      0.00000000	      0.00000000
      7.75833333	    -10.98361342	     -1.58940852	      1.67790910	     -0.36376198	      1.14735409	      0.05047857	     61.23583704	     -5.36071587	     -1.85880303	     59.21789874	      1.03354731	    -11.26077279	     -8.36944010	      0.00000000	     71.40533682	    -10.90239716	      7.81162479	    106.87421019	      1.86530685	      3.56056263	      4.48673109	      0.00000000	    -45.85339980	      1.27196161	      5.44680925	     89.82031318	    -14.11837426	     34.25999445	     20.63600655	     87.12288622	      0.00000000	      0.00000000	     88.77116854	     -1.28609049	     33.98707761	     16.75670586	     86.59649490	      0.00000000	      0.00000000
      7.76666667	    -10.47635830	     -1.70906625	      1.51679818	     -0.36289946	      1.14829337	      0.05075858	     59.41248395	     -5.06438662	     -2.12771713	     57.69167470	      1.00690967	    -12.38233648	     -8.48270578	      0.00000000	     71.92055373	    -11.20783269	      8.17425378	    108.10728112	      1.88682800	      4.11783271	      5.28488501	      0.00000000	    -46.38879854	      1.19811783	      5.67416612	     89.82149697	    -14.19795946	     34.41244973	     20.68406151	     87.05066022	      0.00000000	      0.00000000	     88.76723188	     -1.27397693	     34.04916250	     16.85048632	     86.61926679	      0.00000000	      0.00000000
      7.77500000	    -10.32339878	     -1.47617712	      1.45847367	     -0.36240435	      1.14862042	      0.05057455	     58.08853877	     -5.12581279	     -2.04685522	     56.37044602	      0.98384988	    -12.95785497	     -8.43131094	      0.00000000	     72.79646018	    -11.11048749	      8.22346799	    109.23639109	      1.90653469	      4.26432817	      5.66985616	      0.00000000	    -46.54125657	      0.93927192	      5.51561072	     89.81906305	    -14.16739441	     34.45522674	     20.56809123	     87.03411502	      0.00000000	      0.00000000	     88.74281435	     -1.30838363	     34.09533337	     16.88620382	     86.62632401	      0.00000000	      0.00000000
      7.78333333	    -10.27311409	     -1.17092595	      1.45123133	     -0.36204039	      1.14888192	      0.05037221	     56.89623113	     -5.23776732	     -1.83370432	     55.12549260	      0.96212135	    -13.25215240	     -8.40027214	      0.00000000	     73.77118373	    -10.98701361	      8.13599002	    110.21785648	      1.92366449	      4.84605111	      5.73051411	      0.00000000	    -46.61008344	      0.65625521	      5.25912765	     89.81362402	    -14.13383915	     34.49485206	     20.48785983	     87.03044519	      0.00000000	      0.00000000	     88.80119517	     -1.40290326	     34.16245362	     16.94565065	     86.72098364	      0.00000000	      0.00000000
      7.79166667	    -10.21112970	     -0.88557809	      1.44380814	     -0.36179483	      1.14920133	      0.05006932	     55.73352140	     -5.39086279	     -1.69712138	     53.93857855	      0.94140579	    -13.78093006	     -8.31195254	      0.00000000	     74.70022065	    -10.81122715	      8.03568346	    111.14641017	      1.93987081	      5.29687524	      5.81213512	      0.00000000	    -46.69522957	      0.39379999	      5.05744240	     89.81185727	    -14.15440611	     34.52165757	     20.42385152	     87.04865305	      0.00000000	      0.00000000	     88.78110612	     -1.39867647	     34.30748049	     16.97215439	     86.85669440	      0.00000000	      0.00000000
      7.80000000	    -10.13793734	     -0.63931080	      1.45121184	     -0.36155899	      1.14953990	      0.04994828	     54.59285543	     -5.51657209	     -1.59449249	     52.84755034	      0.92236375	    -14.30660955	     -8.23137269	      0.00000000	     75.64565519	    -10.67427329	      7.96065206	    112.01080869	      1.95495741	      5.78130760	      5.87602381	      0.00000000	    -46.79558168	      0.15708324	      4.86459528	     89.80703947	    -14.16425530	     34.54115842	     20.38755631	     87.05167320	      0.00000000	      0.00000000	     88.79500335	     -1.43077039	     34.40714564	     17.02758526	     86.93411874	      0.00000000	      0.00000000
      7.80833333	     -9.97630576	     -0.48831731	      1.43035409	     -0.36114614	      1.14995907	      0.04980086	     53.39397818	     -5.55751138	     -1.46512185	     51.86645324	      0.90524038	    -14.98850992	     -8.11355354	      0.00000000	     76.47565834	    -10.60132367	      7.95385887	    112.75981044	      1.96802996	      6.16776583	      5.93143464	      0.00000000	    -46.97080905	     -0.01059208	      4.74751772	     89.80703938	    -14.15450488	     34.63427279	     20.31832091	     87.03180955	      0.00000000	      0.00000000	     88.78427131	     -1.45913055	     34.49168849	     17.07911754	     86.97217579	      0.00000000	      0.00000000
      7.81666667	     -9.62521076	     -0.47469224	      1.41115644	     -0.36055378	      1.15066234	      0.04978517	     51.96897679	     -5.51546116	     -1.58011826	     50.90635197	      0.88848345	    -15.62114918	     -8.12172248	      0.00000000	     77.13215812	    -10.63808403	      8.09022957	    113.51269815	      1.98117033	      6.48762414	      6.02143788	      0.00000000	    -47.34507286	     -0.08228689	      4.77009292	     89.80472597	    -14.22326157	     34.77151588	     20.33161037	     86.95160432	      0.00000000	      0.00000000	     88.78996792	     -1.43956135	     34.55633987	     17.15362135	     86.97878909	      0.00000000	      0.00000000
      7.82500000	     -9.54118347	     -0.22219139	      1.37465120	     -0.36022328	      1.15055251	      0.04956730	     51.09803378	     -5.66706591	     -1.45719454	     50.44137840	      0.88036813	    -15.65189490	     -8.15735041	      0.00000000	     78.05640272	    -10.53563188	      7.92935773	    114.21291204	      1.99339136	      6.59653277	      6.06709693	      0.00000000	    -47.41363266	     -0.33079864	      4.62454050	     89.79344369	    -14.27816073	     34.72047728	     20.36360713	     86.94611176	      0.00000000	      0.00000000	     88.78090057	     -1.41237184	     34.57066993	     17.14584844	     86.98599001	      0.00000000	      0.00000000
      7.83333333	     -9.21548461	     -0.30511044	      1.43213696	     -0.35976845	      1.15167079	      0.04949114	     49.60852389	     -5.54466368	     -1.54146343	     49.34921765	      0.86130633	    -16.25586190	     -8.26887915	      0.00000000	     78.65833372	    -10.47988805	      8.10817614	    114.65954075	      2.00118650	      7.03052373	      5.99283974	      0.00000000	    -47.80255448	     -0.26728368	      4.63616938	     89.80015565	    -14.28837054	     34.82244027	     20.30564177	     86.86927219	      0.00000000	      0.00000000	     88.80010752	     -1.41432751	     34.56365652	     17.19966379	     86.97244053	      0.00000000	      0.00000000
